<svg height="512pt" viewBox="0 0 512 512" width="512pt" xmlns="http://www.w3.org/2000/svg">
  <defs>
    <linearGradient id="grad1" x1="0%" y1="0%" x2="0%" y2="100%">
      <stop offset="0%" style="stop-color:rgb(255,245,0);stop-opacity:1" />
      <stop offset="100%" style="stop-color:rgb(255,145,0);stop-opacity:1" />
    </linearGradient>
  </defs>
 <path d="m354.386719 176.480469c3.992187 35.910156-12.023438 70.910156-41.792969 91.34375-22.285156 15.300781-35.59375 40.039062-35.59375 66.175781v20h-40v-20c0-39.324219 19.796875-76.390625 52.957031-99.152344 17.578125-12.066406 27.03125-32.738281 24.675781-53.949218-2.933593-26.363282-24.351562-47.613282-50.933593-50.53125-17.078125-1.875-33.355469 3.253906-45.832031 14.4375-12.167969 10.902343-18.867188 25.890624-18.867188 42.195312v20h-40v-20c0-27.421875 11.726562-53.660156 32.167969-71.980469 20.753906-18.601562 48.78125-27.496093 76.894531-24.410156 45.039062 4.941406 81.34375 41.054687 86.324219 85.871094zm-117.386719 245.519531h40v-40h-40zm275-166c0 68.378906-26.628906 132.667969-74.980469 181.019531-48.351562 48.351563-112.640625 74.980469-181.019531 74.980469s-132.667969-26.628906-181.019531-74.980469c-48.351563-48.351562-74.980469-112.640625-74.980469-181.019531s26.628906-132.667969 74.980469-181.019531c48.351562-48.351563 112.640625-74.980469 181.019531-74.980469s132.667969 26.628906 181.019531 74.980469c48.351563 48.351562 74.980469 112.640625 74.980469 181.019531zm-40 0c0-119.101562-96.898438-216-216-216s-216 96.898438-216 216 96.898438 216 216 216 216-96.898438 216-216zm0 0" fill="url(#grad1)"/></svg>